<svg width="156" height="156" viewBox="0 0 156 156" fill="none" xmlns="http://www.w3.org/2000/svg">
<path d="M136.5 110.5L115.096 89.0955C113.877 87.8769 112.224 87.1924 110.5 87.1924C108.776 87.1924 107.123 87.8769 105.904 89.0955L102.095 92.9045C100.877 94.1231 99.2236 94.8076 97.5 94.8076C95.7764 94.8076 94.1234 94.1231 92.9045 92.9045L74.191 74.191C71.7531 71.7539 68.4471 70.3848 65 70.3848C61.5529 70.3848 58.2469 71.7539 55.809 74.191L19.5 110.5M136.5 32.5V123.5C136.5 125.224 135.815 126.877 134.596 128.096C133.377 129.315 131.724 130 130 130H26C24.2761 130 22.6228 129.315 21.4038 128.096C20.1848 126.877 19.5 125.224 19.5 123.5V32.5C19.5 30.7761 20.1848 29.1228 21.4038 27.9038C22.6228 26.6848 24.2761 26 26 26H130C131.724 26 133.377 26.6848 134.596 27.9038C135.815 29.1228 136.5 30.7761 136.5 32.5ZM104 52C104 53.7239 103.315 55.3772 102.096 56.5962C100.877 57.8152 99.2239 58.5 97.5 58.5C95.7761 58.5 94.1228 57.8152 92.9038 56.5962C91.6848 55.3772 91 53.7239 91 52C91 50.2761 91.6848 48.6228 92.9038 47.4038C94.1228 46.1848 95.7761 45.5 97.5 45.5C99.2239 45.5 100.877 46.1848 102.096 47.4038C103.315 48.6228 104 50.2761 104 52Z" stroke="black" stroke-width="13" stroke-linecap="round" stroke-linejoin="round"/>
</svg>
