<svg width="156" height="156" viewBox="0 0 156 156" fill="none" xmlns="http://www.w3.org/2000/svg">
<path d="M129.564 84.7665C128.337 94.1262 124.585 102.975 118.711 110.365C112.836 117.754 105.061 123.405 96.2192 126.711C87.3773 130.018 77.8022 130.855 68.5207 129.133C59.2393 127.411 50.6016 123.195 43.5341 116.937C36.4665 110.679 31.2358 102.615 28.4028 93.6107C25.5699 84.606 25.2415 74.9999 27.4531 65.8228C29.6646 56.6457 34.3326 48.2436 40.9563 41.5178C47.5801 34.792 55.9097 29.9961 65.052 27.6445C90.3955 21.1445 116.629 34.19 126.314 58.5" stroke="black" stroke-width="13" stroke-linecap="round" stroke-linejoin="round"/>
<path d="M130 26V58.5H97.5" stroke="black" stroke-width="13" stroke-linecap="round" stroke-linejoin="round"/>
</svg>
