<svg width="156" height="156" viewBox="0 0 156 156" fill="none" xmlns="http://www.w3.org/2000/svg">
<path d="M78 97.5C88.7696 97.5 97.5 88.7696 97.5 78C97.5 67.2304 88.7696 58.5 78 58.5C67.2304 58.5 58.5 67.2304 58.5 78C58.5 88.7696 67.2304 97.5 78 97.5Z" stroke="white" stroke-width="9.75"/>
<path d="M89.4725 13.988C87.087 13 84.058 13 78 13C71.942 13 68.913 13 66.5275 13.988C64.9492 14.6413 63.5151 15.5993 62.3072 16.8072C61.0993 18.0151 60.1413 19.4492 59.488 21.0275C58.89 22.477 58.6495 24.1735 58.5585 26.637C58.5162 28.4175 58.0229 30.1582 57.1249 31.6963C56.2268 33.2344 54.9533 34.5195 53.4235 35.4315C51.8687 36.301 50.1188 36.7619 48.3375 36.771C46.5561 36.7801 44.8016 36.3371 43.238 35.4835C41.054 34.3265 39.4745 33.6895 37.908 33.4815C34.4911 33.0322 31.0355 33.958 28.301 36.0555C26.26 37.635 24.739 40.2545 21.71 45.5C18.681 50.7455 17.16 53.365 16.8285 55.9325C16.6051 57.6254 16.7175 59.3458 17.1591 60.9953C17.6008 62.6448 18.3631 64.1912 19.4025 65.546C20.3645 66.794 21.71 67.8405 23.7965 69.1535C26.871 71.084 28.847 74.373 28.847 78C28.847 81.627 26.871 84.916 23.7965 86.84C21.71 88.1595 20.358 89.206 19.4025 90.454C18.3631 91.8088 17.6008 93.3552 17.1591 95.0047C16.7175 96.6542 16.6051 98.3746 16.8285 100.068C17.1665 102.629 18.681 105.255 21.7035 110.5C24.739 115.745 26.2535 118.365 28.301 119.944C29.6558 120.984 31.2022 121.746 32.8517 122.188C34.5012 122.63 36.2216 122.742 37.9145 122.519C39.4745 122.311 41.054 121.674 43.238 120.517C44.8016 119.663 46.5561 119.22 48.3375 119.229C50.1188 119.238 51.8687 119.699 53.4235 120.568C56.563 122.388 58.4285 125.736 58.5585 129.363C58.6495 131.833 58.8835 133.523 59.488 134.972C60.1413 136.551 61.0993 137.985 62.3072 139.193C63.5151 140.401 64.9492 141.359 66.5275 142.012C68.913 143 71.942 143 78 143C84.058 143 87.087 143 89.4725 142.012C91.0508 141.359 92.4849 140.401 93.6928 139.193C94.9007 137.985 95.8587 136.551 96.512 134.972C97.11 133.523 97.3505 131.833 97.4415 129.363C97.5715 125.736 99.437 122.382 102.576 120.568C104.131 119.699 105.881 119.238 107.663 119.229C109.444 119.22 111.198 119.663 112.762 120.517C114.946 121.674 116.525 122.311 118.085 122.519C119.778 122.742 121.499 122.63 123.148 122.188C124.798 121.746 126.344 120.984 127.699 119.944C129.746 118.371 131.261 115.745 134.29 110.5C137.319 105.255 138.84 102.635 139.171 100.068C139.395 98.3746 139.283 96.6542 138.841 95.0047C138.399 93.3552 137.637 91.8088 136.597 90.454C135.635 89.206 134.29 88.1595 132.204 86.8465C130.682 85.9196 129.421 84.6218 128.537 83.0746C127.654 81.5274 127.178 79.7814 127.153 78C127.153 74.373 129.129 71.084 132.204 69.16C134.29 67.8405 135.642 66.794 136.597 65.546C137.637 64.1912 138.399 62.6448 138.841 60.9953C139.283 59.3458 139.395 57.6254 139.171 55.9325C138.833 53.3715 137.319 50.7455 134.296 45.5C131.261 40.2545 129.746 37.635 127.699 36.0555C126.344 35.0161 124.798 34.2538 123.148 33.8121C121.499 33.3705 119.778 33.2581 118.085 33.4815C116.525 33.6895 114.946 34.3265 112.755 35.4835C111.193 36.3359 109.439 36.7783 107.659 36.7692C105.879 36.7601 104.13 36.2999 102.576 35.4315C101.047 34.5195 99.7732 33.2344 98.8751 31.6963C97.9771 30.1582 97.4838 28.4175 97.4415 26.637C97.3505 24.167 97.1165 22.477 96.512 21.0275C95.8587 19.4492 94.9007 18.0151 93.6928 16.8072C92.4849 15.5993 91.0508 14.6413 89.4725 13.988Z" stroke="white" stroke-width="9.75"/>
</svg>
